<svg xmlns="http://www.w3.org/2000/svg" width="201" height="52" fill="none" viewBox="0 0 201 52">
    <g clip-path="url(#prefix__clip0)">
        <path fill="#fff" d="M59.219 33.705c-1.053-.582-1.877-1.42-2.45-2.491-.595-1.07-.893-2.304-.893-3.654 0-1.374.298-2.607.893-3.678.595-1.07 1.443-1.909 2.496-2.49 1.076-.583 2.29-.885 3.663-.885 1.1 0 2.152.232 3.183.675 1.03.442 1.854 1.094 2.518 1.932l-2.427 2.118c-.824-.978-1.854-1.466-3.114-1.466-.526 0-1.007.093-1.465.279-.458.186-.824.442-1.122.768-.297.326-.55.722-.71 1.187-.16.466-.252.978-.252 1.513 0 1.117.344 2.025 1.008 2.723.664.699 1.534 1.048 2.587 1.048.664 0 1.26-.14 1.786-.396.527-.256.962-.582 1.328-.978l2.473 2.212c-.618.721-1.443 1.327-2.45 1.769-1.03.465-2.175.675-3.457.675-1.374.023-2.542-.28-3.595-.861zM79.161 20.507v4.003c-.366-.023-.664-.046-.961-.046-1.076 0-1.9.326-2.519 1-.595.652-.916 1.514-.916 2.561v6.331h-3.594v-13.64h3.594v2.002h.046c.504-.722 1.122-1.28 1.809-1.653.687-.395 1.442-.582 2.244-.582.16 0 .251.024.297.024zM93.563 28.723h-9.388c.206.815.618 1.444 1.237 1.909.595.466 1.328.698 2.198.698 1.305 0 2.358-.512 3.205-1.536l2.335 2.211c-.618.792-1.396 1.397-2.38 1.862-.985.466-2.13.699-3.412.699-1.305 0-2.473-.28-3.526-.861-1.053-.582-1.877-1.397-2.473-2.491-.595-1.07-.916-2.328-.916-3.701 0-1.024.16-1.955.504-2.84.343-.884.801-1.63 1.397-2.234.595-.606 1.282-1.094 2.106-1.444.824-.349 1.694-.512 2.633-.512 1.305 0 2.45.303 3.434.885 1.008.605 1.763 1.42 2.313 2.467.55 1.048.824 2.235.824 3.562 0 .675-.023 1.094-.091 1.326zm-8.289-4.399c-.526.419-.893 1-1.099 1.77h5.907c-.183-.746-.526-1.328-1.03-1.747-.48-.419-1.122-.628-1.877-.628-.733 0-1.351.186-1.9.605zM109.796 13.803v20.553h-3.412v-1.652h-.091c-.985 1.257-2.336 1.885-4.099 1.885-.526 0-1.03-.046-1.534-.163-.481-.116-.939-.28-1.374-.489-.435-.209-.824-.465-1.19-.768-.367-.302-.687-.651-.985-1.047-.274-.396-.526-.838-.732-1.304-.206-.465-.367-.977-.458-1.513-.092-.535-.16-1.117-.16-1.699 0-1.024.16-1.978.48-2.84.32-.884.756-1.629 1.328-2.257.55-.629 1.237-1.094 2.015-1.467.779-.349 1.626-.535 2.496-.535 1.694 0 3.045.582 4.052 1.769h.069v-8.473h3.595zm-5.152 17.062c.527-.303.962-.745 1.282-1.327.321-.582.481-1.233.481-1.955 0-1.094-.343-2.002-1.007-2.723-.664-.722-1.512-1.094-2.519-1.094-.984 0-1.809.349-2.45 1.047-.664.698-.984 1.63-.984 2.77 0 1.094.32 2.002.961 2.677.641.698 1.466 1.024 2.473 1.024.641.023 1.236-.116 1.763-.42zM112.337 32.587l1.74-2.514c1.122 1.071 2.358 1.607 3.709 1.607.504 0 .916-.117 1.214-.303.297-.21.435-.489.435-.815 0-.21-.092-.396-.275-.559-.183-.162-.435-.302-.756-.442-.32-.14-.801-.302-1.419-.512-.412-.14-.756-.28-1.076-.419-.321-.14-.641-.302-.962-.489-.321-.186-.618-.395-.847-.628-.229-.233-.458-.489-.641-.768-.183-.28-.344-.605-.435-.978-.092-.372-.138-.768-.138-1.187 0-.815.206-1.513.641-2.141.436-.629 1.008-1.094 1.741-1.444.732-.325 1.556-.512 2.449-.512.939 0 1.809.14 2.588.42.778.279 1.557.698 2.312 1.303l-1.74 2.677c-.504-.49-1.03-.838-1.58-1.094-.549-.233-1.099-.35-1.625-.35-.344 0-.641.094-.916.257-.275.186-.412.419-.412.744 0 .28.16.512.48.745.321.21.825.466 1.534.745 1.489.559 2.473 1.001 2.977 1.327.87.535 1.397 1.28 1.557 2.188.046.28.091.582.091.908 0 1.257-.435 2.28-1.328 3.072-.892.792-2.175 1.164-3.869 1.164-2.129 0-3.938-.675-5.449-2.002zM137.797 20.716l-7.235 19.157h-3.663l2.381-6.354-5.358-12.803h3.755l3.274 8.426h.046l3.068-8.426h3.732zM138.667 32.587l1.74-2.514c1.122 1.071 2.358 1.607 3.709 1.607.504 0 .916-.117 1.214-.303.297-.21.435-.489.435-.815 0-.21-.092-.396-.275-.559-.183-.162-.435-.302-.756-.442-.32-.14-.801-.302-1.419-.512-.412-.14-.756-.28-1.076-.419-.321-.14-.641-.302-.962-.489-.32-.186-.618-.395-.847-.628-.229-.233-.458-.489-.641-.768-.183-.28-.344-.605-.435-.978-.092-.372-.138-.768-.138-1.187 0-.815.207-1.513.642-2.141.435-.629 1.007-1.094 1.74-1.444.732-.325 1.557-.512 2.449-.512.939 0 1.809.14 2.588.42.778.279 1.557.698 2.312 1.303l-1.74 2.677c-.504-.49-1.03-.838-1.58-1.094-.549-.233-1.099-.35-1.625-.35-.344 0-.641.094-.916.257-.275.186-.412.419-.412.744 0 .28.16.512.481.745.32.21.824.466 1.534.745 1.488.559 2.472 1.001 2.976 1.327.87.535 1.397 1.28 1.557 2.188.046.28.092.582.092.908 0 1.257-.435 2.28-1.328 3.072-.893.792-2.176 1.164-3.87 1.164-2.152 0-3.961-.675-5.449-2.002zM153.412 33.425c-.687-.768-1.03-1.909-1.03-3.398v-6.285h-1.58v-3.026h1.58V16.27l3.594-.396v4.842h3.641v3.026h-3.641v5.796c0 .605.092 1.047.275 1.327.183.279.481.419.916.419.526 0 1.076-.163 1.694-.49l.916 2.91c-.504.28-1.03.49-1.534.652-.527.14-1.191.21-2.015.21-1.191.023-2.129-.373-2.816-1.141zM174.041 28.723h-9.387c.206.815.618 1.444 1.236 1.909.618.466 1.328.698 2.198.698 1.305 0 2.358-.512 3.205-1.536l2.336 2.211c-.618.792-1.397 1.397-2.381 1.862-.985.466-2.13.699-3.412.699-1.305 0-2.473-.28-3.526-.861-1.053-.582-1.877-1.397-2.473-2.491-.595-1.07-.915-2.328-.915-3.701 0-1.024.16-1.955.503-2.84.344-.884.802-1.63 1.397-2.234.595-.606 1.282-1.094 2.106-1.444.825-.349 1.695-.512 2.633-.512 1.305 0 2.45.303 3.435.885 1.007.605 1.763 1.42 2.312 2.467.55 1.048.824 2.235.824 3.562 0 .675-.022 1.094-.091 1.326zm-8.265-4.399c-.527.419-.893 1-1.099 1.77h5.907c-.184-.746-.527-1.328-1.031-1.747-.481-.419-1.122-.628-1.877-.628-.733 0-1.374.186-1.9.605zM196.822 21.95c.824.977 1.236 2.467 1.236 4.492v7.938h-3.594v-7.053c0-2.351-.779-3.538-2.336-3.538-.503 0-.961.14-1.373.419-.412.279-.733.721-.985 1.28-.252.582-.366 1.257-.366 2.048v6.82h-3.595v-7.053c0-2.35-.801-3.538-2.381-3.538-.549 0-1.03.14-1.442.42-.412.279-.756.72-1.008 1.28-.252.582-.366 1.256-.366 2.048v6.82h-3.595V20.716h3.595v1.792h.046c.526-.651 1.145-1.163 1.831-1.513.687-.349 1.42-.535 2.175-.535 1.878 0 3.206.722 3.984 2.188h.046c.55-.698 1.214-1.257 2.015-1.63.801-.372 1.671-.558 2.656-.558 1.465.023 2.633.512 3.457 1.49zM24.074 42.969c-11.654 0-21.133-9.637-21.133-21.485C2.941 9.637 12.421 0 24.074 0v9.031c-6.754 0-12.25 5.587-12.25 12.453 0 6.867 5.496 12.453 12.25 12.453v9.032z"/>
        <path fill="url(#prefix__paint0_linear)" d="M24.074 9.032c11.654 0 21.133 9.636 21.133 21.484C45.207 42.364 35.728 52 24.074 52V42.97c6.754 0 12.25-5.587 12.25-12.453 0-6.867-5.496-12.476-12.25-12.476V9.032z"/>
    </g>
    <defs>
        <linearGradient id="prefix__paint0_linear" x1="34.641" x2="34.641" y1="8" y2="52" gradientUnits="userSpaceOnUse">
            <stop/>
            <stop offset="0" stop-color="#05FCFF"/>
            <stop offset=".292" stop-color="#3B2DFF"/>
            <stop offset=".75" stop-color="#B000D9"/>
            <stop offset="1" stop-color="#FF0092"/>
        </linearGradient>
        <clipPath id="prefix__clip0">
            <path fill="#fff" d="M2.941 0H198.058V52H2.941z"/>
        </clipPath>
    </defs>
</svg>
